<?xml version="1.0" encoding="utf-8"?>
<!-- Generator: Adobe Illustrator 24.0.2, SVG Export Plug-In . SVG Version: 6.00 Build 0)  -->
<svg version="1.1" xmlns="http://www.w3.org/2000/svg" xmlns:xlink="http://www.w3.org/1999/xlink" x="0px" y="0px"
	 viewBox="0 0 48 46" style="enable-background:new 0 0 48 46;" xml:space="preserve">
<style type="text/css">
	.st0{fill:url(#SVGID_1_);}
	.st1{fill:none;stroke:#FFFFFF;stroke-width:1.5243;stroke-linecap:round;stroke-linejoin:round;}
	.st2{fill:#158D43;}
	.st3{fill:none;stroke:#FFFFFF;stroke-width:1.7421;stroke-linecap:round;stroke-linejoin:round;}
	.st4{fill:#D00505;}
	.st5{fill:#FFFFFF;}
</style>
<g id="Layer_1">
</g>
<g id="Layer_2">
	<linearGradient id="SVGID_1_" gradientUnits="userSpaceOnUse" x1="24" y1="46" x2="24" y2="-9.094947e-13">
		<stop  offset="0" style="stop-color:#BFE0E9"/>
		<stop  offset="1" style="stop-color:#0AA7CE"/>
	</linearGradient>
	<rect class="st0" width="48" height="46"/>
	<g>
		<g>
			<path class="st1" d="M27,38.2l-9-2.9c-1.8-3.4-2.9-7-3.6-10.7c-0.1-0.5-0.8-0.5-0.9,0c-0.7,2.8-2,5.5-3.8,8.1l-5.8-1.9L14.7,8.4
				C18.2,19,22.2,29,27,38.2z"/>
			<path class="st2" d="M27,38.2l-9-2.9c-1.8-3.4-2.9-7-3.6-10.7c-0.1-0.5-0.8-0.5-0.9,0c-0.7,2.8-2,5.5-3.8,8.1l-5.8-1.9L14.7,8.4
				C18.2,19,22.2,29,27,38.2z"/>
		</g>
		<g>
			<path class="st3" d="M28.6,37.8C23.8,28.3,19.7,18.4,16.2,8c6.3,2.1,12.2,2.3,17.7,1l10.1,23.7C38.5,35.6,33.2,37.7,28.6,37.8z"
				/>
			<path class="st4" d="M28.6,37.8C23.8,28.3,19.7,18.4,16.2,8c6.3,2.1,12.2,2.3,17.7,1l10.1,23.7C38.5,35.6,33.2,37.7,28.6,37.8z"
				/>
		</g>
		<path class="st5" d="M13.9,8.2L13.9,8.2c0.5-0.9,1.6-1.4,2.6-1L17,7.4l-1.7,0.9L14,8.2L13.9,8.2z"/>
		<path class="st5" d="M27,38.9c0,0,1.1-0.1,1.8-0.2S28,37.9,28,37.9L27.5,38L27,38.9z"/>
		<polygon class="st5" points="23.9,28.5 18,14.1 18,16.6 22,26.9 23.1,28.8 		"/>
		<path class="st5" d="M30.9,22.1L28.5,24c-0.2,0.2-0.5,0-0.5-0.2l-0.2-3l-4.2-1.9c-0.1-0.1-0.1-0.3,0.1-0.3l4.1-0.3l-0.2-2.9
			c0-0.3,0.3-0.4,0.5-0.2l2.6,2.9l4.1-0.1c0.3,0,0.5,0.4,0.2,0.6l-2.2,1.9l2.7,3.1c0.1,0.1,0,0.2-0.1,0.2L30.9,22.1z"/>
	</g>
</g>
</svg>
