<?xml version="1.0" encoding="utf-8"?>
<!-- Generator: Adobe Illustrator 24.0.2, SVG Export Plug-In . SVG Version: 6.00 Build 0)  -->
<svg version="1.1" id="Layer_1" xmlns="http://www.w3.org/2000/svg" xmlns:xlink="http://www.w3.org/1999/xlink" x="0px" y="0px"
	 viewBox="0 0 48 46" style="enable-background:new 0 0 48 46;" xml:space="preserve">
<style type="text/css">
	.st0{fill:#BC2F4A;}
	.st1{fill:#F4A328;}
</style>
<rect class="st0" width="48" height="46"/>
<g id="Layer_1_1_">
</g>
<g>
	<g>
		<path class="st1" d="M17,23.7c0-0.1-0.1-0.2-0.2-0.2l-8.1-8.1c-0.2-0.2-0.2-0.2,0-0.4l1.8-1.8c0.1-0.1,0.1-0.1,0.2-0.2l8.2,8.2
			l0,0c-0.1-0.3-0.2-0.5-0.3-0.8c-0.4-0.9-0.8-1.8-1.2-2.8c-0.5-1.2-1-2.4-1.5-3.6c-0.5-1.1-1-2.3-1.5-3.4c0-0.1-0.1-0.2,0.1-0.2
			c0.9-0.4,1.8-0.7,2.7-1.1c0.1-0.1,0.2,0,0.2,0.1c0.6,1.4,1.2,2.7,1.7,4.1c0.7,1.7,1.5,3.4,2.2,5.1c0.3,0.6,0.5,1.2,0.8,1.8
			c0.1,0,0.1-0.1,0.1-0.2c0-0.6,0-1.2,0-1.9c-0.1-3.3,0-6.5,0-9.8c0-0.3,0-0.3,0.3-0.3h2.7c0.3,0,0.3,0,0.3,0.3v11.8h0.1
			c1.6-3.7,3.1-7.4,4.7-11.1c0.5,0.2,1,0.4,1.5,0.6c0.4,0.2,0.9,0.4,1.3,0.6c0.2,0.1,0.2,0.1,0.1,0.2c-0.3,0.8-0.6,1.5-1,2.3
			c-0.4,1.1-0.9,2.1-1.4,3.2c-0.4,0.8-0.7,1.7-1.1,2.5s-0.7,1.6-1,2.5v0.1l8.2-8.2c0.1,0,0.1,0.1,0.2,0.1c0.6,0.6,1.3,1.3,1.9,1.9
			c0.2,0.2,0.2,0.1,0,0.4L32.4,22L31,23.4c0,0.1,0.1,0,0.1,0c1.1-0.5,2.2-0.9,3.3-1.4c1.2-0.5,2.4-1,3.6-1.5
			c0.9-0.4,1.8-0.8,2.8-1.2c0.3-0.1,0.5-0.2,0.8-0.3c0.2-0.1,0.2-0.1,0.2,0.1c0.3,0.7,0.6,1.5,1,2.2c0,0.1,0.1,0.3,0.2,0.4
			c0.1,0.1,0,0.2-0.1,0.2c-0.5,0.2-0.9,0.4-1.4,0.6l-3.1,1.3c-0.9,0.4-1.8,0.8-2.7,1.2c-0.1,0-0.1,0-0.2,0.1l0.7,0.3
			c1.1,0.4,2.2,0.9,3.3,1.3c1.3,0.5,2.6,1,3.9,1.5c0.2,0.1,0.2,0.1,0.1,0.3c-0.4,0.9-0.7,1.7-1.1,2.6c-0.1,0.2-0.1,0.2-0.2,0.1
			l-3.3-1.3c-0.6-0.2-1.1-0.5-1.7-0.7L34,27.9c-0.9-0.4-1.8-0.7-2.7-0.9c-0.1,0-0.3-0.1-0.3-0.2c-0.9-1.2-2.1-2-3.5-2.6
			c-1.2-0.5-2.6-0.7-3.9-0.6c-0.6,0-1.2,0.1-1.7,0.3c-1,0.3-2,0.8-2.8,1.5c-0.7,0.5-1.2,1.1-1.7,1.8c-0.1,0.1-0.2,0.2-0.3,0.2
			c-1.1,0.3-2.2,0.8-3.3,1.3c-0.8,0.3-1.6,0.7-2.5,1.1l-3,1.3l-1.5,0.6c-0.1,0-0.1,0-0.2,0.1c-0.1,0-0.1,0-0.2-0.1
			c-0.2-0.4-0.4-0.9-0.6-1.3s-0.4-0.9-0.6-1.3c0-0.1,0-0.1,0.1-0.2c0.9-0.4,1.7-0.7,2.6-1.1l3.9-1.7c0.3-0.1,0.6-0.2,0.9-0.4
			c-0.3-0.1-0.5-0.2-0.8-0.3c-1.3-0.5-2.6-1.1-3.9-1.6c-1.1-0.4-2.1-0.9-3.2-1.3c-0.2-0.1-0.2-0.1-0.1-0.3c0.4-0.9,0.7-1.8,1.1-2.7
			c0.1-0.2,0.1-0.1,0.2-0.1c0.7,0.3,1.5,0.6,2.2,0.9l5,2c1.2,0.5,2.5,1,3.7,1.5C16.8,23.7,16.9,23.7,17,23.7z"/>
		<path class="st1" d="M6.4,37.8c-0.3-0.6-0.5-1.3-0.8-1.9c-0.1-0.3-0.2-0.6-0.4-0.8c-0.1-0.2-0.1-0.2,0.1-0.3
			c0.8-0.3,1.6-0.7,2.3-1l3.9-1.7l2.9-1.3c0.7-0.3,1.4-0.6,2-0.9c1.1-0.4,2.1-1,3.3-1.3c0.7-0.2,1.3-0.4,2-0.5
			c0.5-0.1,0.9-0.1,1.4-0.2c0.6,0,1.2,0,1.8,0c0.4,0,0.9,0.1,1.3,0.1c0.5,0.1,1,0.2,1.6,0.3c1.3,0.3,2.5,0.8,3.7,1.3
			c1.1,0.4,2.2,0.9,3.3,1.3c1.7,0.7,3.5,1.4,5.2,2.1c1.1,0.4,2.1,0.9,3.2,1.3c0.2,0.1,0.2,0.1,0.1,0.2c-0.3,0.7-0.6,1.5-0.9,2.2
			c-0.1,0.1-0.1,0.3-0.2,0.4c0,0.1-0.1,0.1-0.2,0.1c-0.6-0.2-1.2-0.5-1.8-0.7c-0.7-0.3-1.5-0.6-2.2-0.9l-2.7-1.1
			c-0.9-0.4-1.8-0.7-2.6-1.1l-3.3-1.3c-0.5-0.2-1-0.4-1.5-0.5c-0.5-0.2-1.1-0.3-1.7-0.4c-0.8-0.1-1.5-0.2-2.3-0.1
			c-0.6,0-1.3,0.1-1.9,0.2c-0.7,0.1-1.4,0.3-2,0.6c-0.5,0.2-0.9,0.4-1.3,0.6c-1.1,0.5-2.2,0.9-3.2,1.4c-1.1,0.4-2.1,0.9-3.2,1.3
			c-1.2,0.5-2.4,1-3.6,1.5c-0.7,0.3-1.4,0.6-2,0.9C6.5,37.8,6.5,37.8,6.4,37.8z"/>
	</g>
</g>
</svg>
