<svg xmlns="http://www.w3.org/2000/svg" viewBox="0 0 576.27 412.06"><defs><style>.cls-1{fill:#fff;}</style></defs><title>logovere</title><g id="Layer_2" data-name="Layer 2"><g id="Layer_1-2" data-name="Layer 1"><path class="cls-1" d="M239.82,107.22a4.58,4.58,0,0,0-1.27-1.46l-56-56c-1.57-1.57-1.57-1.57,0-3.1l12.58-12.6c.47-.46.95-.9,1.52-1.44l56.76,56.74.3-.18c-.74-1.79-1.44-3.59-2.2-5.37-2.72-6.36-5.48-12.71-8.19-19.07Q238,52.31,232.72,39.84c-3.33-7.85-6.63-15.72-10-23.55-.34-.79-.36-1.12.48-1.47,6.11-2.55,12.21-5.12,18.29-7.76.94-.41,1.24-.17,1.58.65q6,14,11.93,28Q262.52,53.34,270,71c1.74,4.1,3.47,8.22,5.22,12.36.65-.28.39-.76.39-1.1,0-4.26.08-8.52,0-12.78-.39-22.49-.05-45-.16-67.47,0-2.23-.11-2,1.89-2H295.7c2,0,1.83-.09,1.83,1.86V83.28l.39.06Q314.18,45,330.5,6.58C334,8,337.3,9.44,340.63,10.86q4.53,1.92,9.06,3.88c1.14.49,1.16.5.67,1.65q-3.35,7.92-6.71,15.82Q339,43.16,334.31,54.1c-2.46,5.76-4.94,11.52-7.38,17.28s-4.77,11.34-7.16,17a.83.83,0,0,0,0,1l56.66-56.64c.66.17.94.66,1.3,1Q384.37,40.36,391,47c1.25,1.25,1.45.95,0,2.43L345.37,95l-9.92,9.9c.33.53.68.29,1,.17,7.62-3.26,15.24-6.54,22.87-9.78,8.19-3.48,16.4-6.89,24.58-10.36,6.37-2.71,12.71-5.48,19.07-8.21,1.81-.78,3.64-1.52,5.46-2.25,1.15-.46,1.21-.46,1.71.69q3.31,7.65,6.57,15.31a20.57,20.57,0,0,0,1.12,2.63c.55.9.21,1.25-.59,1.58-3.13,1.32-6.25,2.67-9.38,4l-21.1,9q-9.37,4-18.76,8c-.42.18-.93.23-1.28.86l4.75,1.91q11.46,4.64,22.91,9.28,13.28,5.34,26.58,10.64c1.3.52,1.31.53.75,1.92q-3.63,9-7.25,17.92c-.46,1.14-.49,1.16-1.68.69l-23.09-9.29c-3.87-1.55-7.73-3.13-11.6-4.69L356,136a167.55,167.55,0,0,0-18.64-6.33A4.1,4.1,0,0,1,335,128.1a58.34,58.34,0,0,0-24-17.91A60.83,60.83,0,0,0,284.2,106a54.13,54.13,0,0,0-11.91,2.2,60,60,0,0,0-19.53,10,59.39,59.39,0,0,0-11.83,12.18,3.55,3.55,0,0,1-2,1.42c-7.79,2.36-15.2,5.71-22.68,8.85-5.67,2.38-11.3,4.84-16.95,7.25l-20.42,8.68-10.2,4.36c-.39.16-.79.3-1.18.44-.6.21-.93.08-1.21-.58-1.28-3.09-2.65-6.14-4-9.22s-2.58-6.17-3.93-9.22c-.34-.77-.2-1,.54-1.28q8.84-3.71,17.63-7.49l27.15-11.63c2-.85,4-1.63,6.2-2.54a43.86,43.86,0,0,0-5.41-2.31q-13.51-5.52-27.06-10.94-11-4.45-22.09-8.86c-1.21-.49-1.25-.49-.75-1.75,2.44-6.09,4.92-12.16,7.29-18.27.44-1.11,1-.75,1.65-.48,5,2,10.07,4.07,15.11,6.09l34.22,13.77c8.46,3.41,16.92,6.85,25.39,10.24C238.76,107.06,239.21,107.5,239.82,107.22Z"/><path class="cls-1" d="M166.65,204.69c-1.9-4.45-3.76-8.78-5.6-13.12-.82-1.92-1.62-3.85-2.43-5.78-.51-1.21-.51-1.3.56-1.75q8.07-3.45,16.14-6.86l27-11.48,20.25-8.63c4.67-2,9.31-4,14-5.95,7.5-3.08,14.8-6.64,22.61-8.94a122,122,0,0,1,13.9-3.27c3.23-.54,6.48-.95,9.73-1.21a118.51,118.51,0,0,1,12.22-.18c3,.08,5.94.43,8.9.77,3.61.42,7.17,1.12,10.72,1.86,8.76,1.84,16.93,5.36,25.19,8.65,7.65,3,15.29,6.15,22.93,9.24q18.07,7.32,36.15,14.66c7.36,3,14.74,5.87,22.12,8.81,1.12.45,1.15.46.66,1.69q-3.06,7.63-6.15,15.27c-.4,1-.84,2-1.19,3-.28.81-.64.93-1.46.59-4.08-1.67-8.2-3.25-12.29-4.89-5-2-10-4-14.95-6l-18.92-7.63c-6.08-2.46-12.15-4.95-18.23-7.4l-22.94-9.22a102.3,102.3,0,0,0-10.43-3.79,97.51,97.51,0,0,0-11.5-2.57,85.4,85.4,0,0,0-15.88-1,77.2,77.2,0,0,0-13,1.44,85.23,85.23,0,0,0-14.09,4c-3.11,1.21-6.19,2.51-9.27,3.8q-11.21,4.74-22.39,9.52c-7.25,3.09-14.48,6.22-21.73,9.3-8.34,3.55-16.71,7.05-25.05,10.6-4.67,2-9.32,4-14,6A8.09,8.09,0,0,1,166.65,204.69Z"/><path class="cls-1" d="M156.1,290.21v2q0,15.84,0,31.67c0,2.11.21,2-1.9,2H135.66c-1.55,0-1.57,0-1.57-1.57q0-33.83,0-67.65c0-1.56,0-1.59,1.59-1.59,7,0,13.92,0,20.88,0a2.27,2.27,0,0,1,2.17,1.46l11.76,19.71q3.45,5.79,6.91,11.56c.31.51.64,1,1,1.64a3.24,3.24,0,0,0,.27-2q0-14.85,0-29.69v-1.08c0-1.55,0-1.58,1.61-1.58h18.54c1.86,0,1.87,0,1.87,1.86q0,16.19,0,32.38,0,17.1,0,34.19c0,.48,0,1,0,1.44,0,.69-.28,1-1,.94-1,0-1.92,0-2.88,0-6.05,0-12.11,0-18.17,0a2.52,2.52,0,0,1-2.56-1.43q-8.89-15.59-17.84-31.13c-.62-1.07-1.2-2.16-1.8-3.23Z"/><path class="cls-1" d="M244.18,359.17c1.53-1.92,3-3.73,4.42-5.55,2-2.48,3.93-5,5.88-7.46.37-.48.68-.92,1.41-.92,4.13,0,8.25,0,12.29,1.08,7.25,1.92,12,6.49,14.39,13.52A45.41,45.41,0,0,1,285,374.46c0,11.27,0,22.55,0,33.83v.9c0,1.55,0,1.57-1.59,1.57h-22c-1.64,0-1.65,0-1.65-1.69q0-14.93,0-29.87a15.19,15.19,0,0,0-1.28-6.46,7.43,7.43,0,0,0-7.21-4.7c-2,0-4,0-5.94,0-1.55,0-1.55,0-1.58,1.64,0,.48,0,1,0,1.44v37.25c0,.48,0,1,0,1.44,0,.69-.29,1-1,.95s-1.56,0-2.34,0h-19.8c-.42,0-.84,0-1.26,0-.73.05-1.15-.19-1.08-1,0-.36,0-.72,0-1.08q0-30.69,0-61.37c0-.18,0-.36,0-.54,0-1.5,0-1.52,1.64-1.52h22.32c1.45,0,1.47,0,1.48,1.52,0,3.6,0,7.2,0,10.8A2,2,0,0,0,244.18,359.17Z"/><path class="cls-1" d="M334.78,410.77c-5.7,0-11.4,0-17.09,0A54.34,54.34,0,0,1,303.15,409c-3.8-1.08-7.25-2.82-9.65-6.16A15.14,15.14,0,0,1,291,396a18.33,18.33,0,0,1,.68-7.94,14.84,14.84,0,0,1,4.35-6.47c3.35-3.29,7.44-5.37,11.69-7.21,6-2.59,12.25-4.4,18.44-6.42.12,0,.24-.05.35-.09.57-.27,1.52-.2,1.57-.95s-.8-1.11-1.44-1.44a2.63,2.63,0,0,0-1-.31c-2.19-.1-4.35-.92-6.57-.24a4.32,4.32,0,0,1-1.25,0h-20.7c-.3,0-.6,0-.9,0-.87.08-1.14-.34-1.12-1.17,0-2.15,0-4.31,0-6.47,0-3.48,0-7,0-10.44,0-1.65,0-1.66,1.69-1.66h30.05a44.21,44.21,0,0,1,13.62,1.83,18.66,18.66,0,0,1,12.3,11.67,38.65,38.65,0,0,1,2.39,12.07c.58,12.76.11,25.53.25,38.29,0,1.64,0,1.65-1.69,1.65Zm-2.7-28.5c-1.86.56-3.41,1-4.92,1.5a34,34,0,0,0-7.51,3.36,6.07,6.07,0,0,0-1.86,1.67,1.69,1.69,0,0,0,.69,2.69,4.13,4.13,0,0,0,1.21.3c3.88.58,7.76.17,11.64,0a.69.69,0,0,0,.75-.79C332.07,388.19,332.08,385.38,332.08,382.27Z"/><path class="cls-1" d="M168.12,345c6.06,0,12.12-.14,18.17,0a49.31,49.31,0,0,1,14.47,2.12c4.31,1.46,8,3.79,10,8.19a17.57,17.57,0,0,1,1.05,10.36c-.79,4.39-3.38,7.55-6.79,10.19A48.61,48.61,0,0,1,191,383c-5,1.75-10.09,3.38-15.14,5.06-.43.15-1,.15-1,.79s.45.78.86,1.05a5.82,5.82,0,0,0,2.87.92,22.51,22.51,0,0,0,5.38.09,6.35,6.35,0,0,1,1.07,0h21.23c1.69,0,1.71,0,1.71,1.65q0,8.18,0,16.36c0,1.55,0,1.58-1.61,1.58-11.1,0-22.19,0-33.28,0A32.32,32.32,0,0,1,160.46,408c-5.57-2.38-9.07-6.67-10.87-12.41a44.43,44.43,0,0,1-1.84-11.1c-.64-12.58-.1-25.16-.29-37.73,0-.3,0-.6,0-.9,0-.6.27-.88.86-.88h19.79Zm2.7,30.91c3.74-1.67,7.17-3.2,10.59-4.75a13.2,13.2,0,0,0,2.53-1.32,3,3,0,0,0,1.57-2.83,3.06,3.06,0,0,0-2.24-2.55,11.23,11.23,0,0,0-3.49-.75c-2.7-.12-5.38.24-8.07.28-.59,0-.9.21-.9.83C170.82,368.4,170.82,372,170.82,375.9Z"/><path class="cls-1" d="M447.81,388.57c.37,1.47,1.53,1.74,2.61,2a17.43,17.43,0,0,0,5.52.45c3.24-.22,6.48-.1,9.71-.12,4.68,0,9.36,0,14,0,1.4,0,1.43,0,1.44,1.37q0,8.37,0,16.73c0,1.44,0,1.47-1.55,1.48H460.15c-4.56,0-9.12.09-13.68,0a33.09,33.09,0,0,1-13.91-3,18.38,18.38,0,0,1-9.39-10.83,42.78,42.78,0,0,1-2.31-13c-.46-12.34-.07-24.69-.2-37,0-1.65,0-1.67,1.69-1.67,12.59,0,25.19-.16,37.79.08,5.46.1,11,.64,16.09,3,5.76,2.67,8.84,7.07,8.94,13.51a16.39,16.39,0,0,1-1.72,8.33A19.34,19.34,0,0,1,478,376,49,49,0,0,1,464.45,383c-5.25,1.86-10.56,3.52-15.85,5.27C448.38,388.29,448.17,388.41,447.81,388.57Zm-3.7-13.16c.35.27.53.19.69.12,2.95-1.31,5.92-2.59,8.85-3.95a12.32,12.32,0,0,0,3.9-2.15c1.75-1.74,1.32-4.1-1-4.95a13.05,13.05,0,0,0-4-.79c-2.46-.09-4.9.27-7.35.27-.95,0-1.08.46-1.07,1.23,0,1.8,0,3.6,0,5.4Z"/><path class="cls-1" d="M363.77,275.67V257.14c0-.42,0-.84,0-1.26,0-.6.29-.87.88-.86h19.07c.3,0,.6,0,.9,0,.82-.07,1.26.24,1.17,1.13a8.81,8.81,0,0,0,0,.89c0,11.76,0,23.51,0,35.27a46.61,46.61,0,0,1-2.22,14.82c-2.79,8.27-8,14.34-16.22,17.62a35.83,35.83,0,0,1-10.26,2.32,50.53,50.53,0,0,1-11.27-.23c-8.94-1.21-16.21-5.24-21.11-13a35.6,35.6,0,0,1-4.84-14.51,69.93,69.93,0,0,1-.5-9.49q0-15.91,0-31.84v-1.08c0-1.89,0-1.9,1.85-1.9h14.57c1.38,0,2.76,0,4.14,0,.93,0,1.26.32,1.24,1.26,0,3,0,6,0,9,0,8.64-.07,17.28,0,25.91a33.6,33.6,0,0,0,1,8.86,10.89,10.89,0,0,0,17.28,5.6,10.06,10.06,0,0,0,3.08-4.76,20.36,20.36,0,0,0,1.2-7C363.75,287.79,363.77,281.73,363.77,275.67Z"/><path class="cls-1" d="M206.5,290.47V257c0-2,0-2,1.92-2h47.87c.24,0,.49,0,.72,0,.85-.08,1.18.3,1.17,1.15,0,5.69,0,11.39,0,17.09,0,.75-.29,1.11-1.07,1.05-.41,0-.84,0-1.26,0h-25c-.42,0-.84,0-1.26,0-.82-.06-1.2.22-1.18,1.11,0,1.85,0,3.72,0,5.57,0,.7.29,1,1,.94.42,0,.84,0,1.26,0q10.44,0,20.88,0c1.59,0,1.62,0,1.62,1.55q0,6.84,0,13.68c0,1.62,0,1.63-1.73,1.63H230c-1.56,0-1.57,0-1.58,1.59q0,2.07,0,4.14c0,2-.15,1.88,1.81,1.88h26.46c1.46,0,1.49,0,1.49,1.5q0,8.08,0,16.19c0,1.73,0,1.74-1.79,1.74H207.79c-1.24-.05-1.26-.05-1.28-1.34s0-2.64,0-4Z"/><path class="cls-1" d="M77.2,290.35V257.43c0-.42,0-.84,0-1.26-.07-.84.26-1.24,1.13-1.17a9.73,9.73,0,0,0,1.08,0h47.14c2.52,0,2.18-.1,2.19,2.25q0,7.65,0,15.29c0,1.73,0,1.74-1.8,1.75H101.21c-2.18,0-2.16-.29-2.16,2.12V280c0,2.06,0,1.89,1.83,1.89H115.1c2.46,0,4.92,0,7.37,0,.94,0,1.25.32,1.25,1.25,0,4.8,0,9.59,0,14.39,0,1.22,0,1.24-1.57,1.24-6.89,0-13.79,0-20.69,0-2.56,0-2.36-.36-2.38,2.44,0,1.37,0,2.75,0,4.13,0,.78.32,1.06,1.08,1,1,0,2,0,3.06,0h23.39c.42,0,.84,0,1.25,0,.73,0,.94.36.91,1,0,.36,0,.72,0,1.08,0,5.1,0,10.2,0,15.29,0,2.2.23,2.06-2,2.06H81c-1,0-1.92,0-2.88,0-.68,0-1-.25-1-.95,0-.48,0-1,0-1.44Z"/><path class="cls-1" d="M391.13,290.39V256.58c0-1.55,0-1.57,1.62-1.57h47.5c.42,0,.84,0,1.26,0,.82-.06,1.18.25,1.17,1.13q0,8.53,0,17.09c0,.74-.25,1.12-1,1.07-.48,0-1,0-1.44,0H415.37c-.48,0-1,0-1.44,0-.71,0-.95.35-.94,1q0,2.88,0,5.76c0,.6.28.87.88.85s1,0,1.44,0h20c.36,0,.72,0,1.08,0,1.23,0,1.23,0,1.27,1.36,0,.6,0,1.2,0,1.8,0,4,0,8,0,12.05,0,1.63,0,1.65-1.71,1.65H415.41c-.42,0-.84,0-1.26,0-.86-.08-1.19.3-1.17,1.14,0,1.8,0,3.6,0,5.4,0,.73.23,1.13,1,1.07.42,0,.84,0,1.26,0h25c.42,0,.84,0,1.26,0,.85-.07,1.16.3,1.14,1.15,0,2,0,4.07,0,6.11,0,3.54,0,7.08,0,10.62,0,1.54,0,1.56-1.6,1.56H392.85c-1.83,0-1.72.1-1.72-1.79Z"/><path class="cls-1" d="M576.22,325.61c-.47.36-1,.2-1.54.21H555.25c-1.48,0-1.48,0-1.92-1.4-.92-3-1.85-5.93-2.72-8.91a1.45,1.45,0,0,0-1.65-1.22c-6,0-12,0-18,0-1.42,0-1.48.06-1.87,1.4-.88,3-1.76,6-2.6,9-.23.79-.54,1.19-1.47,1.18-7,0-13.91,0-20.87,0a3,3,0,0,1-.6-.13c0-1.48.81-2.72,1.27-4q4.51-13,9.12-25.88,5.63-15.79,11.28-31.58c1-2.71,2-5.39,2.88-8.11a1.37,1.37,0,0,1,1.57-1.07c6.78,0,13.55,0,20.33,0a1.63,1.63,0,0,1,1.81,1.29c1.61,4.63,3.28,9.24,4.92,13.85q3.15,8.88,6.29,17.76,4.77,13.44,9.55,26.87,1.71,4.82,3.44,9.63A1.81,1.81,0,0,1,576.22,325.61ZM539.61,281c-1.79,6-3.47,11.52-5.19,17.25,1.55,0,2.81,0,4.06,0,1.8,0,3.6,0,5.4,0,1.07,0,1.1-.09.89-1.18a8.42,8.42,0,0,0-.24-.86c-.92-3-1.79-6.08-2.8-9.08A37.63,37.63,0,0,0,539.61,281Z"/><path class="cls-1" d="M288.42,273.27h-25.1c-1.34,0-1.37,0-1.37-1.43q0-7.74,0-15.47c0-1.3,0-1.31,1.29-1.36h50c2.59,0,2.25-.08,2.26,2.19,0,3.66,0,7.32,0,11a5.78,5.78,0,0,1-.87,3.22q-7.94,13.14-15.83,26.32c-1.63,2.72-3.28,5.43-4.9,8.15a2.62,2.62,0,0,0-.57,1.43,4.55,4.55,0,0,0,1.69.11h18c.36,0,.72,0,1.08,0,1.35,0,1.38,0,1.38,1.44q0,7.81,0,15.65c0,1.28,0,1.31-1.3,1.32-2.82,0-5.64,0-8.46,0H263.29c-1.3,0-1.33,0-1.34-1.28,0-4.25,0-8.51,0-12.77a2.76,2.76,0,0,1,.55-1.66q7.06-9.94,14.1-19.9,5.64-8,11.26-16C288,274,288.09,273.83,288.42,273.27Z"/><path class="cls-1" d="M0,255.22A2.89,2.89,0,0,1,1.54,255H21c1.59,0,1.63,0,2.09,1.53,1.65,5.43,3.25,10.87,4.88,16.31q2.54,8.41,5.1,16.82c.84,2.8,1.66,5.61,2.53,8.41a2.31,2.31,0,0,0,.63,1.37,19.42,19.42,0,0,0,1.65-4.67c2.4-7.52,4.7-15.07,7-22.61q2.37-7.73,4.7-15.44c.51-1.68.53-1.72,2.37-1.72H71a3.49,3.49,0,0,1,1.71.2,17.61,17.61,0,0,1-1.3,4.16C69,266.26,66.57,273.12,64.11,280l-7.06,19.77q-4.17,11.76-8.31,23.52c-.89,2.53-.87,2.54-3.58,2.54H26.62c-1.63,0-1.65,0-2.18-1.52q-4.07-11.51-8.13-23c-2.74-7.72-5.53-15.43-8.27-23.15q-3.52-9.88-7-19.8A15.05,15.05,0,0,1,0,255.22Z"/><path class="cls-1" d="M411.51,368.47a43.47,43.47,0,0,0-5.93-2.16c-3.5-.78-7-1.05-10.43.22-4.73,1.75-7.9,5.3-8.09,10.91a11.66,11.66,0,0,0,7.36,11.44,17.48,17.48,0,0,0,11.72.33,22.5,22.5,0,0,0,4.54-1.67c.69-.36,1-.06,1.2.54.6,1.82,1.2,3.64,1.77,5.46,1.11,3.54,2.2,7.08,3.3,10.61.45,1.44.39,1.62-.83,2.56a23.2,23.2,0,0,1-8.28,3.76A48.21,48.21,0,0,1,397.4,412a42.9,42.9,0,0,1-11.71-1,30.94,30.94,0,0,1-13.25-6.52c-5.65-4.79-8.72-11-10-18.14a44.45,44.45,0,0,1,1-21.28,28.25,28.25,0,0,1,12.73-16.55,36.17,36.17,0,0,1,15.26-4.76,46.28,46.28,0,0,1,18.05,1.91,19,19,0,0,1,7.1,3.73,1.37,1.37,0,0,1,.56,1.68q-2.73,8.53-5.44,17.08A1.68,1.68,0,0,1,411.51,368.47Z"/><path class="cls-1" d="M114.47,356.56a33.63,33.63,0,0,1,5.6-7,20.39,20.39,0,0,1,13.61-6c2.88-.13,5.75-.08,8.63-.11,1.32,0,1.37,0,1.37,1.25,0,7,0,14,0,21,0,.77-.09,1.18-1.12,1a42.82,42.82,0,0,0-9.86-.24c-7.35.66-12.69,4.59-14.41,12.29a39.26,39.26,0,0,0-.74,8c-.1,7.26,0,14.51,0,21.76,0,.42,0,.84,0,1.26,0,.69-.28,1-1,1-.42,0-.84,0-1.26,0H94.08c-.36,0-.72,0-1.08,0-.83.08-1.25-.24-1.17-1.11,0-.36,0-.72,0-1.08V347.43c0-2.52-.06-2.16,2.09-2.17,4.56,0,9.11,0,13.67,0a1.86,1.86,0,0,1,2,1.3C111.1,349.79,112.72,353,114.47,356.56Z"/><path class="cls-1" d="M448,290.42V256.78c0-1.76,0-1.77,1.78-1.77h18c2.11,0,2.08-.2,2.08,2q0,23.38,0,46.77c0,3-.32,2.56,2.59,2.57,8.22,0,16.43,0,24.65,0h1.08c1.31,0,1.35,0,1.36,1.27,0,5.64,0,11.27,0,16.91,0,.9-.25,1.36-1.21,1.26a9.73,9.73,0,0,0-1.08,0H449.77c-1.86,0-1.76.13-1.76-1.75Z"/><path class="cls-1" d="M378.89,231.65v-4.31c0-2.63,0-5.27,0-7.9,0-1.25,0-1.25,1.32-1.3,3.41-.11,3.41-.11,3.41,3.37v17.25c0,1.68,0,1.52-1.65,1.74-2.54.36-4-.59-5.21-2.86-1.75-3.32-3.86-6.46-5.82-9.67-.19-.3-.42-.57-.63-.86-.61.24-.36.73-.36,1.08,0,3.6,0,7.19,0,10.79,0,1.45,0,1.45-1.5,1.48-3.23.07-3.23.07-3.23-3.17V220.21c0-.42,0-.84,0-1.26s.19-.79.73-.79c1.32,0,2.63,0,3.95,0,.83,0,1,.75,1.34,1.29q3.28,5.43,6.52,10.89A5.19,5.19,0,0,0,378.89,231.65Z"/><path class="cls-1" d="M208.25,229.14c0-3.29,0-6.59,0-9.88,0-1.38,0-1.46,1.39-1.4,2.22.1,4.41-.26,6.62-.28a26.36,26.36,0,0,1,5.67.58c3.14.63,4.68,2.19,5.17,5.36a17,17,0,0,1,0,4.83c-.5,3.74-2.83,5.56-6.78,5.79-1.43.08-2.88,0-4.31,0-2.62,0-2.26-.06-2.28,2.37,0,1,0,1.92,0,2.88,0,.75-.25,1.1-1,1.07a31.63,31.63,0,0,0-3.23,0c-1,.06-1.28-.4-1.19-1.28V229.14Zm5.46-3.24h0V229a.76.76,0,0,0,.7.85,12.6,12.6,0,0,0,5-.1,2.76,2.76,0,0,0,2.23-2.68,20.12,20.12,0,0,0,0-2.33,2.61,2.61,0,0,0-2-2.49,15.54,15.54,0,0,0-4.81-.28,1.06,1.06,0,0,0-1.14,1.27C213.74,224.1,213.71,225,213.71,225.9Z"/><path class="cls-1" d="M310.73,240.34a4.5,4.5,0,0,1,.3-1.82c2.09-6.55,4.21-13.1,6.24-19.67.25-.8.54-1,1.32-1a38.11,38.11,0,0,0,4.14,0c1.06-.08,1.45.36,1.75,1.3,1.4,4.51,2.88,9,4.33,13.5.67,2.11,1.35,4.21,2,6.32a2.74,2.74,0,0,1,.19,1.52c-1.6,0-3.21,0-4.82,0a.92.92,0,0,1-1-.75c-.21-.81-.53-1.6-.71-2.41a1.11,1.11,0,0,0-1.25-1c-1.62,0-3.24,0-4.86,0a1.2,1.2,0,0,0-1.36,1.11c-.17.76-.41,1.5-.6,2.25a.9.9,0,0,1-1,.79A35.86,35.86,0,0,1,310.73,240.34Zm10.15-17.44a61.45,61.45,0,0,0-2.51,8.92c1.33,0,2.46,0,3.58,0s1.16-.1.91-1.13C322.22,228.08,321.54,225.49,320.88,222.9Z"/><path class="cls-1" d="M261.76,229.31c0-3.17,0-6.35,0-9.52,0-1.63,0-1.63,1.71-1.64.9,0,1.8,0,2.7,0s1.14.34,1.13,1.16c0,2.64,0,5.27,0,7.91,0,2.15,0,4.31,0,6.46,0,1.89,0,1.89,1.82,1.9,2.21,0,4.43,0,6.65,0,1.58,0,1.58,0,1.61,1.58.05,3.31.05,3.31-3.28,3.31H263.85c-2.15,0-2.1.32-2.09-2.17Z"/></g></g></svg>