<?xml version="1.0" encoding="utf-8"?>
<!-- Generator: Adobe Illustrator 24.0.2, SVG Export Plug-In . SVG Version: 6.00 Build 0)  -->
<svg version="1.1" id="Layer_1" xmlns="http://www.w3.org/2000/svg" xmlns:xlink="http://www.w3.org/1999/xlink" x="0px" y="0px"
	 viewBox="0 0 576.3 412.1" style="enable-background:new 0 0 576.3 412.1;" xml:space="preserve">
<style type="text/css">
	.st0{fill:#F4A328;}
	.st1{fill:#FFFFFF;}
</style>
<title>logovere</title>
<g id="Layer_2_1_">
	<g id="Layer_1-2">
		<path class="st0" d="M239.8,107.2c-0.3-0.6-0.7-1.1-1.3-1.5l-56-56c-1.6-1.6-1.6-1.6,0-3.1l12.6-12.6c0.5-0.5,0.9-0.9,1.5-1.4
			l56.8,56.7l0.3-0.2c-0.7-1.8-1.4-3.6-2.2-5.4c-2.7-6.4-5.5-12.7-8.2-19.1c-3.5-8.3-7.1-16.6-10.6-24.9c-3.3-7.9-6.6-15.7-10-23.5
			c-0.3-0.8-0.4-1.1,0.5-1.5c6.1-2.6,12.2-5.1,18.3-7.8c0.9-0.4,1.2-0.2,1.6,0.7c4,9.3,8,18.7,11.9,28c5,11.8,10,23.5,15,35.3
			c1.7,4.1,3.5,8.2,5.2,12.4c0.6-0.3,0.4-0.8,0.4-1.1c0-4.3,0.1-8.5,0-12.8c-0.4-22.5,0-45-0.2-67.5c0-2.2-0.1-2,1.9-2h18.4
			c2,0,1.8-0.1,1.8,1.9v81.4l0.4,0.1c10.8-25.6,21.7-51.1,32.6-76.8c3.5,1.4,6.8,2.9,10.1,4.3c3,1.3,6,2.6,9.1,3.9
			c1.1,0.5,1.2,0.5,0.7,1.6c-2.2,5.3-4.5,10.6-6.7,15.8c-3.1,7.3-6.2,14.6-9.3,21.9c-2.5,5.8-4.9,11.5-7.4,17.3s-4.8,11.3-7.2,17
			c-0.2,0.3-0.2,0.7,0,1l56.7-56.6c0.7,0.2,0.9,0.7,1.3,1c4.4,4.4,8.9,8.8,13.3,13.3c1.3,1.3,1.5,1,0,2.4L345.4,95l-9.9,9.9
			c0.3,0.5,0.7,0.3,1,0.2c7.6-3.3,15.2-6.5,22.9-9.8c8.2-3.5,16.4-6.9,24.6-10.4c6.4-2.7,12.7-5.5,19.1-8.2c1.8-0.8,3.6-1.5,5.5-2.3
			c1.1-0.5,1.2-0.5,1.7,0.7c2.2,5.1,4.4,10.2,6.6,15.3c0.3,0.9,0.7,1.8,1.1,2.6c0.5,0.9,0.2,1.3-0.6,1.6c-3.1,1.3-6.3,2.7-9.4,4
			l-21.1,9c-6.2,2.7-12.5,5.3-18.8,8c-0.4,0.2-0.9,0.2-1.3,0.9l4.8,1.9c7.6,3.1,15.3,6.2,22.9,9.3c8.9,3.6,17.7,7.1,26.6,10.6
			c1.3,0.5,1.3,0.5,0.8,1.9c-2.4,6-4.8,12-7.3,17.9c-0.5,1.1-0.5,1.2-1.7,0.7l-23.1-9.3c-3.9-1.6-7.7-3.1-11.6-4.7L356,136
			c-6.1-2.5-12.3-4.6-18.6-6.3c-0.9-0.2-1.8-0.8-2.4-1.6c-6.3-8-14.6-14.1-24-17.9c-8.5-3.4-17.7-4.8-26.8-4.2c-4,0.3-8,1-11.9,2.2
			c-7.1,2.1-13.7,5.5-19.5,10c-4.5,3.5-8.5,7.6-11.8,12.2c-0.5,0.7-1.2,1.2-2,1.4c-7.8,2.4-15.2,5.7-22.7,8.9
			c-5.7,2.4-11.3,4.8-16.9,7.3l-20.4,8.7l-10.2,4.4c-0.4,0.2-0.8,0.3-1.2,0.4c-0.6,0.2-0.9,0.1-1.2-0.6c-1.3-3.1-2.6-6.1-4-9.2
			s-2.6-6.2-3.9-9.2c-0.3-0.8-0.2-1,0.5-1.3c5.9-2.5,11.8-5,17.6-7.5l27.1-11.6c2-0.8,4-1.6,6.2-2.5c-1.7-0.9-3.6-1.7-5.4-2.3
			c-9-3.7-18-7.3-27.1-10.9c-7.3-3-14.7-5.9-22.1-8.9c-1.2-0.5-1.3-0.5-0.8-1.8c2.4-6.1,4.9-12.2,7.3-18.3c0.4-1.1,1-0.8,1.6-0.5
			c5,2,10.1,4.1,15.1,6.1l34.2,13.8c8.5,3.4,16.9,6.8,25.4,10.2C238.8,107.1,239.2,107.5,239.8,107.2z"/>
		<path class="st0" d="M166.6,204.7c-1.9-4.4-3.8-8.8-5.6-13.1c-0.8-1.9-1.6-3.9-2.4-5.8c-0.5-1.2-0.5-1.3,0.6-1.8
			c5.4-2.3,10.8-4.6,16.1-6.9l27-11.5l20.3-8.6c4.7-2,9.3-4,14-5.9c7.5-3.1,14.8-6.6,22.6-8.9c4.6-1.4,9.2-2.5,13.9-3.3
			c3.2-0.5,6.5-0.9,9.7-1.2c4.1-0.3,8.1-0.3,12.2-0.2c3,0.1,5.9,0.4,8.9,0.8c3.6,0.4,7.2,1.1,10.7,1.9c8.8,1.8,16.9,5.4,25.2,8.6
			c7.6,3,15.3,6.1,22.9,9.2c12,4.9,24.1,9.8,36.1,14.7c7.4,3,14.7,5.9,22.1,8.8c1.1,0.4,1.1,0.5,0.7,1.7c-2,5.1-4.1,10.2-6.1,15.3
			c-0.4,1-0.8,2-1.2,3c-0.3,0.8-0.6,0.9-1.5,0.6c-4.1-1.7-8.2-3.3-12.3-4.9c-5-2-10-4-15-6l-18.9-7.6c-6.1-2.5-12.1-4.9-18.2-7.4
			l-22.9-9.2c-3.4-1.5-6.9-2.7-10.4-3.8c-3.8-1.1-7.6-1.9-11.5-2.6c-5.3-0.8-10.6-1.2-15.9-1c-4.4,0.1-8.7,0.6-13,1.4
			c-4.8,0.9-9.5,2.3-14.1,4c-3.1,1.2-6.2,2.5-9.3,3.8c-7.5,3.2-14.9,6.3-22.4,9.5c-7.3,3.1-14.5,6.2-21.7,9.3
			c-8.3,3.6-16.7,7.1-25.1,10.6c-4.7,2-9.3,4-14,6C167.7,204.4,167.2,204.6,166.6,204.7z"/>
		<path class="st1" d="M156.1,290.2v2c0,10.6,0,21.1,0,31.7c0,2.1,0.2,2-1.9,2h-18.5c-1.6,0-1.6,0-1.6-1.6c0-22.6,0-45.1,0-67.6
			c0-1.6,0-1.6,1.6-1.6c7,0,13.9,0,20.9,0c1,0,1.8,0.6,2.2,1.5l11.8,19.7c2.3,3.9,4.6,7.7,6.9,11.6c0.3,0.5,0.6,1,1,1.6
			c0.3-0.6,0.4-1.3,0.3-2c0-9.9,0-19.8,0-29.7v-1.1c0-1.6,0-1.6,1.6-1.6h18.5c1.9,0,1.9,0,1.9,1.9c0,10.8,0,21.6,0,32.4
			c0,11.4,0,22.8,0,34.2c0,0.5,0,1,0,1.4c0,0.7-0.3,1-1,0.9c-1,0-1.9,0-2.9,0c-6.1,0-12.1,0-18.2,0c-1.1,0.1-2.1-0.5-2.6-1.4
			c-5.9-10.4-11.9-20.8-17.8-31.1c-0.6-1.1-1.2-2.2-1.8-3.2L156.1,290.2z"/>
		<path class="st1" d="M244.2,359.2c1.5-1.9,3-3.7,4.4-5.5c2-2.5,3.9-5,5.9-7.5c0.4-0.5,0.7-0.9,1.4-0.9c4.1,0,8.3,0,12.3,1.1
			c7.3,1.9,12,6.5,14.4,13.5c1.6,4.7,2.4,9.6,2.4,14.6c0,11.3,0,22.5,0,33.8v0.9c0,1.5,0,1.6-1.6,1.6h-22c-1.6,0-1.6,0-1.6-1.7
			c0-10,0-19.9,0-29.9c0.1-2.2-0.4-4.4-1.3-6.5c-1.2-2.9-4.1-4.8-7.2-4.7c-2,0-4,0-5.9,0c-1.6,0-1.6,0-1.6,1.6c0,0.5,0,1,0,1.4v37.3
			c0,0.5,0,1,0,1.4c0,0.7-0.3,1-1,1s-1.6,0-2.3,0h-19.8c-0.4,0-0.8,0-1.3,0c-0.7,0-1.1-0.2-1.1-1c0-0.4,0-0.7,0-1.1
			c0-20.5,0-40.9,0-61.4c0-0.2,0-0.4,0-0.5c0-1.5,0-1.5,1.6-1.5h22.3c1.4,0,1.5,0,1.5,1.5c0,3.6,0,7.2,0,10.8
			C243.6,358.1,243.8,358.7,244.2,359.2z"/>
		<path class="st1" d="M334.8,410.8c-5.7,0-11.4,0-17.1,0c-4.9,0.1-9.8-0.5-14.5-1.8c-3.8-1.1-7.3-2.8-9.6-6.2
			c-1.4-2-2.2-4.4-2.5-6.8c-0.4-2.7-0.1-5.4,0.7-7.9c0.8-2.5,2.3-4.7,4.4-6.5c3.4-3.3,7.4-5.4,11.7-7.2c6-2.6,12.3-4.4,18.4-6.4
			c0.1,0,0.2,0,0.4-0.1c0.6-0.3,1.5-0.2,1.6-1s-0.8-1.1-1.4-1.4c-0.3-0.2-0.6-0.3-1-0.3c-2.2-0.1-4.4-0.9-6.6-0.2
			c-0.4,0.1-0.8,0.1-1.3,0h-20.7c-0.3,0-0.6,0-0.9,0c-0.9,0.1-1.1-0.3-1.1-1.2c0-2.1,0-4.3,0-6.5c0-3.5,0-7,0-10.4
			c0-1.6,0-1.7,1.7-1.7h30c4.6-0.1,9.2,0.5,13.6,1.8c5.7,1.7,10.3,6,12.3,11.7c1.4,3.9,2.2,7.9,2.4,12.1c0.6,12.8,0.1,25.5,0.3,38.3
			c0,1.6,0,1.6-1.7,1.6L334.8,410.8z M332.1,382.3c-1.9,0.6-3.4,1-4.9,1.5c-2.6,0.8-5.2,1.9-7.5,3.4c-0.7,0.4-1.4,1-1.9,1.7
			c-0.6,0.7-0.5,1.8,0.2,2.4c0.2,0.1,0.3,0.2,0.5,0.3c0.4,0.2,0.8,0.3,1.2,0.3c3.9,0.6,7.8,0.2,11.6,0c0.4,0,0.7-0.2,0.8-0.6
			c0-0.1,0-0.1,0-0.2C332.1,388.2,332.1,385.4,332.1,382.3z"/>
		<path class="st1" d="M168.1,345c6.1,0,12.1-0.1,18.2,0c4.9,0,9.8,0.7,14.5,2.1c4.3,1.5,8,3.8,10,8.2c1.4,3.3,1.8,6.9,1.1,10.4
			c-0.8,4.4-3.4,7.5-6.8,10.2c-4.3,3.1-9,5.5-14,7.1c-5,1.8-10.1,3.4-15.1,5.1c-0.4,0.1-1,0.1-1,0.8s0.4,0.8,0.9,1
			c0.9,0.6,1.8,0.9,2.9,0.9c1.8,0.2,3.6,0.3,5.4,0.1c0.4,0,0.7,0,1.1,0h21.2c1.7,0,1.7,0,1.7,1.6c0,5.5,0,10.9,0,16.4
			c0,1.5,0,1.6-1.6,1.6c-11.1,0-22.2,0-33.3,0c-4.3,0-8.6-0.8-12.6-2.5c-5.6-2.4-9.1-6.7-10.9-12.4c-1.1-3.6-1.7-7.3-1.8-11.1
			c-0.6-12.6-0.1-25.2-0.3-37.7c0-0.3,0-0.6,0-0.9c0-0.6,0.3-0.9,0.9-0.9L168.1,345L168.1,345z M170.8,375.9
			c3.7-1.7,7.2-3.2,10.6-4.8c0.9-0.3,1.7-0.8,2.5-1.3c1-0.6,1.6-1.7,1.6-2.8c-0.2-1.2-1-2.2-2.2-2.5c-1.1-0.4-2.3-0.7-3.5-0.8
			c-2.7-0.1-5.4,0.2-8.1,0.3c-0.6,0-0.9,0.2-0.9,0.8C170.8,368.4,170.8,372,170.8,375.9L170.8,375.9z"/>
		<path class="st1" d="M447.8,388.6c0.4,1.5,1.5,1.7,2.6,2c1.8,0.4,3.7,0.6,5.5,0.5c3.2-0.2,6.5-0.1,9.7-0.1c4.7,0,9.4,0,14,0
			c1.4,0,1.4,0,1.4,1.4c0,5.6,0,11.2,0,16.7c0,1.4,0,1.5-1.5,1.5h-19.4c-4.6,0-9.1,0.1-13.7,0c-4.8,0-9.5-1-13.9-3
			c-4.5-2.2-7.9-6.1-9.4-10.8c-1.4-4.2-2.2-8.6-2.3-13c-0.5-12.3-0.1-24.7-0.2-37c0-1.6,0-1.7,1.7-1.7c12.6,0,25.2-0.2,37.8,0.1
			c5.5,0.1,11,0.6,16.1,3c5.8,2.7,8.8,7.1,8.9,13.5c0.2,2.9-0.4,5.8-1.7,8.3c-1.4,2.4-3.2,4.5-5.4,6.1c-4.1,3-8.7,5.4-13.5,7
			c-5.3,1.9-10.6,3.5-15.9,5.3C448.4,388.3,448.2,388.4,447.8,388.6z M444.1,375.4c0.4,0.3,0.5,0.2,0.7,0.1c3-1.3,5.9-2.6,8.9-4
			c1.4-0.5,2.7-1.2,3.9-2.1c1.8-1.7,1.3-4.1-1-5c-1.3-0.5-2.6-0.7-4-0.8c-2.5-0.1-4.9,0.3-7.4,0.3c-1,0-1.1,0.5-1.1,1.2
			c0,1.8,0,3.6,0,5.4L444.1,375.4z"/>
		<path class="st1" d="M363.8,275.7v-18.5c0-0.4,0-0.8,0-1.3c0-0.6,0.3-0.9,0.9-0.9h19.1c0.3,0,0.6,0,0.9,0c0.8-0.1,1.3,0.2,1.2,1.1
			c0,0.3,0,0.6,0,0.9c0,11.8,0,23.5,0,35.3c0.1,5-0.7,10-2.2,14.8c-2.8,8.3-8,14.3-16.2,17.6c-3.3,1.3-6.7,2.1-10.3,2.3
			c-3.8,0.3-7.5,0.3-11.3-0.2c-8.9-1.2-16.2-5.2-21.1-13c-2.6-4.4-4.3-9.4-4.8-14.5c-0.4-3.1-0.5-6.3-0.5-9.5c0-10.6,0-21.2,0-31.8
			v-1.1c0-1.9,0-1.9,1.9-1.9h14.6c1.4,0,2.8,0,4.1,0c0.9,0,1.3,0.3,1.2,1.3c0,3,0,6,0,9c0,8.6-0.1,17.3,0,25.9c-0.1,3,0.3,6,1,8.9
			c1.6,5.8,7.6,9.2,13.4,7.6c1.4-0.4,2.7-1.1,3.9-2c1.5-1.3,2.5-2.9,3.1-4.8c0.8-2.2,1.2-4.6,1.2-7
			C363.8,287.8,363.8,281.7,363.8,275.7z"/>
		<path class="st1" d="M206.5,290.5V257c0-2,0-2,1.9-2h47.9c0.2,0,0.5,0,0.7,0c0.9-0.1,1.2,0.3,1.2,1.1c0,5.7,0,11.4,0,17.1
			c0,0.8-0.3,1.1-1.1,1c-0.4,0-0.8,0-1.3,0h-25c-0.4,0-0.8,0-1.3,0c-0.8-0.1-1.2,0.2-1.2,1.1c0,1.9,0,3.7,0,5.6c0,0.7,0.3,1,1,0.9
			c0.4,0,0.8,0,1.3,0c7,0,13.9,0,20.9,0c1.6,0,1.6,0,1.6,1.5c0,4.6,0,9.1,0,13.7c0,1.6,0,1.6-1.7,1.6H230c-1.6,0-1.6,0-1.6,1.6
			c0,1.4,0,2.8,0,4.1c0,2-0.1,1.9,1.8,1.9h26.5c1.5,0,1.5,0,1.5,1.5c0,5.4,0,10.8,0,16.2c0,1.7,0,1.7-1.8,1.7h-48.6
			c-1.2,0-1.3,0-1.3-1.3s0-2.6,0-4L206.5,290.5z"/>
		<path class="st1" d="M77.2,290.4v-32.9c0-0.4,0-0.8,0-1.3c-0.1-0.8,0.3-1.2,1.1-1.2c0.4,0,0.7,0,1.1,0h47.1c2.5,0,2.2-0.1,2.2,2.3
			c0,5.1,0,10.2,0,15.3c0,1.7,0,1.7-1.8,1.8h-25.7c-2.2,0-2.2-0.3-2.2,2.1v3.6c0,2.1,0,1.9,1.8,1.9h14.2c2.5,0,4.9,0,7.4,0
			c0.9,0,1.3,0.3,1.3,1.3c0,4.8,0,9.6,0,14.4c0,1.2,0,1.2-1.6,1.2c-6.9,0-13.8,0-20.7,0c-2.6,0-2.4-0.4-2.4,2.4c0,1.4,0,2.8,0,4.1
			c0,0.8,0.3,1.1,1.1,1c1,0,2,0,3.1,0h23.4c0.4,0,0.8,0,1.3,0c0.7,0,0.9,0.4,0.9,1c0,0.4,0,0.7,0,1.1c0,5.1,0,10.2,0,15.3
			c0,2.2,0.2,2.1-2,2.1H81c-1,0-1.9,0-2.9,0c-0.7,0-1-0.3-1-1c0-0.5,0-1,0-1.4L77.2,290.4z"/>
		<path class="st1" d="M391.1,290.4v-33.8c0-1.6,0-1.6,1.6-1.6h47.5c0.4,0,0.8,0,1.3,0c0.8-0.1,1.2,0.3,1.2,1.1c0,5.7,0,11.4,0,17.1
			c0,0.7-0.3,1.1-1,1.1c-0.5,0-1,0-1.4,0h-24.9c-0.5,0-1,0-1.4,0c-0.7,0-1,0.4-0.9,1c0,1.9,0,3.8,0,5.8c0,0.6,0.3,0.9,0.9,0.9
			s1,0,1.4,0h20c0.4,0,0.7,0,1.1,0c1.2,0,1.2,0,1.3,1.4c0,0.6,0,1.2,0,1.8c0,4,0,8,0,12c0,1.6,0,1.6-1.7,1.6h-20.5
			c-0.4,0-0.8,0-1.3,0c-0.9-0.1-1.2,0.3-1.2,1.1c0,1.8,0,3.6,0,5.4c0,0.7,0.2,1.1,1,1.1c0.4,0,0.8,0,1.3,0h25c0.4,0,0.8,0,1.3,0
			c0.9-0.1,1.2,0.3,1.1,1.1c0,2,0,4.1,0,6.1c0,3.5,0,7.1,0,10.6c0,1.5,0,1.6-1.6,1.6h-48.2c-1.8,0-1.7,0.1-1.7-1.8V290.4z"/>
		<path class="st1" d="M576.2,325.6c-0.5,0.4-1,0.2-1.5,0.2h-19.4c-1.5,0-1.5,0-1.9-1.4c-0.9-3-1.8-5.9-2.7-8.9
			c-0.1-0.8-0.9-1.3-1.6-1.2c0,0,0,0,0,0c-6,0-12,0-18,0c-1.4,0-1.5,0.1-1.9,1.4c-0.9,3-1.8,6-2.6,9c-0.2,0.8-0.5,1.2-1.5,1.2
			c-7,0-13.9,0-20.9,0c-0.2,0-0.4-0.1-0.6-0.1c0-1.5,0.8-2.7,1.3-4c3-8.7,6-17.3,9.1-25.9c3.8-10.5,7.5-21.1,11.3-31.6
			c1-2.7,2-5.4,2.9-8.1c0.2-0.7,0.8-1.2,1.6-1.1c6.8,0,13.5,0,20.3,0c0.8-0.1,1.6,0.5,1.8,1.3c1.6,4.6,3.3,9.2,4.9,13.9
			c2.1,5.9,4.2,11.8,6.3,17.8c3.2,9,6.4,17.9,9.5,26.9c1.1,3.2,2.3,6.4,3.4,9.6C576.2,324.8,576.3,325.2,576.2,325.6z M539.6,281
			c-1.8,6-3.5,11.5-5.2,17.3c1.5,0,2.8,0,4.1,0c1.8,0,3.6,0,5.4,0c1.1,0,1.1-0.1,0.9-1.2c-0.1-0.3-0.1-0.6-0.2-0.9
			c-0.9-3-1.8-6.1-2.8-9.1C541.2,285,540.5,283,539.6,281z"/>
		<path class="st1" d="M288.4,273.3h-25.1c-1.3,0-1.4,0-1.4-1.4c0-5.2,0-10.3,0-15.5c0-1.3,0-1.3,1.3-1.4h50c2.6,0,2.3-0.1,2.3,2.2
			c0,3.7,0,7.3,0,11c0,1.1-0.3,2.3-0.9,3.2c-5.3,8.8-10.6,17.5-15.8,26.3c-1.6,2.7-3.3,5.4-4.9,8.1c-0.3,0.4-0.5,0.9-0.6,1.4
			c0.6,0.1,1.1,0.2,1.7,0.1h18c0.4,0,0.7,0,1.1,0c1.4,0,1.4,0,1.4,1.4c0,5.2,0,10.4,0,15.6c0,1.3,0,1.3-1.3,1.3c-2.8,0-5.6,0-8.5,0
			h-42.4c-1.3,0-1.3,0-1.3-1.3c0-4.3,0-8.5,0-12.8c0-0.6,0.2-1.2,0.5-1.7c4.7-6.6,9.4-13.3,14.1-19.9c3.8-5.3,7.5-10.7,11.3-16
			C288,274,288.1,273.8,288.4,273.3z"/>
		<path class="st1" d="M0,255.2c0.5-0.2,1-0.3,1.5-0.2H21c1.6,0,1.6,0,2.1,1.5c1.6,5.4,3.3,10.9,4.9,16.3c1.7,5.6,3.4,11.2,5.1,16.8
			c0.8,2.8,1.7,5.6,2.5,8.4c0.1,0.5,0.3,1,0.6,1.4c0.7-1.5,1.3-3,1.7-4.7c2.4-7.5,4.7-15.1,7-22.6c1.6-5.2,3.1-10.3,4.7-15.4
			c0.5-1.7,0.5-1.7,2.4-1.7h19c0.6-0.1,1.2,0,1.7,0.2c-0.3,1.4-0.7,2.8-1.3,4.2c-2.4,6.9-4.8,13.8-7.3,20.6L57,299.8
			c-2.8,7.8-5.5,15.7-8.3,23.5c-0.9,2.5-0.9,2.5-3.6,2.5H26.6c-1.6,0-1.6,0-2.2-1.5c-2.7-7.7-5.4-15.3-8.1-23
			c-2.7-7.7-5.5-15.4-8.3-23.1c-2.3-6.6-4.7-13.2-7-19.8C0.6,257.4,0.2,256.3,0,255.2z"/>
		<path class="st1" d="M411.5,368.5c-1.9-0.9-3.9-1.6-5.9-2.2c-3.5-0.8-7-1-10.4,0.2c-4.7,1.8-7.9,5.3-8.1,10.9
			c-0.3,5,2.7,9.6,7.4,11.4c3.8,1.5,7.9,1.6,11.7,0.3c1.6-0.4,3.1-1,4.5-1.7c0.7-0.4,1-0.1,1.2,0.5c0.6,1.8,1.2,3.6,1.8,5.5
			c1.1,3.5,2.2,7.1,3.3,10.6c0.5,1.4,0.4,1.6-0.8,2.6c-2.5,1.8-5.3,3.1-8.3,3.8c-3.4,0.9-6.9,1.4-10.4,1.5c-3.9,0.2-7.9-0.1-11.7-1
			c-4.9-1.1-9.4-3.3-13.3-6.5c-5.6-4.8-8.7-11-10-18.1c-1.4-7.1-1.1-14.4,1-21.3c2-6.9,6.5-12.9,12.7-16.5c4.7-2.7,9.9-4.3,15.3-4.8
			c6.1-0.6,12.2,0.1,18,1.9c2.6,0.7,5,2,7.1,3.7c0.6,0.3,0.8,1.1,0.6,1.7c-1.8,5.7-3.6,11.4-5.4,17.1
			C411.6,368.3,411.6,368.4,411.5,368.5z"/>
		<path class="st1" d="M114.5,356.6c1.5-2.6,3.4-4.9,5.6-7c3.6-3.6,8.5-5.8,13.6-6c2.9-0.1,5.8-0.1,8.6-0.1c1.3,0,1.4,0,1.4,1.3
			c0,7,0,14,0,21c0,0.8-0.1,1.2-1.1,1c-3.3-0.5-6.6-0.5-9.9-0.2c-7.3,0.7-12.7,4.6-14.4,12.3c-0.5,2.6-0.8,5.3-0.7,8
			c-0.1,7.3,0,14.5,0,21.8c0,0.4,0,0.8,0,1.3c0,0.7-0.3,1-1,1c-0.4,0-0.8,0-1.3,0H94.1c-0.4,0-0.7,0-1.1,0c-0.8,0.1-1.3-0.2-1.2-1.1
			c0-0.4,0-0.7,0-1.1v-61.2c0-2.5-0.1-2.2,2.1-2.2c4.6,0,9.1,0,13.7,0c0.9-0.1,1.7,0.4,2,1.3C111.1,349.8,112.7,353,114.5,356.6z"/>
		<path class="st1" d="M448,290.4v-33.6c0-1.8,0-1.8,1.8-1.8h18c2.1,0,2.1-0.2,2.1,2c0,15.6,0,31.2,0,46.8c0,3-0.3,2.6,2.6,2.6
			c8.2,0,16.4,0,24.6,0h1.1c1.3,0,1.4,0,1.4,1.3c0,5.6,0,11.3,0,16.9c0,0.9-0.3,1.4-1.2,1.3c-0.4,0-0.7,0-1.1,0h-47.5
			c-1.9,0-1.8,0.1-1.8-1.8L448,290.4z"/>
		<path class="st1" d="M378.9,231.6v-4.3c0-2.6,0-5.3,0-7.9c0-1.3,0-1.3,1.3-1.3c3.4-0.1,3.4-0.1,3.4,3.4v17.3c0,1.7,0,1.5-1.6,1.7
			c-2.5,0.4-4-0.6-5.2-2.9c-1.8-3.3-3.9-6.5-5.8-9.7c-0.2-0.3-0.4-0.6-0.6-0.9c-0.6,0.2-0.4,0.7-0.4,1.1c0,3.6,0,7.2,0,10.8
			c0,1.4,0,1.4-1.5,1.5c-3.2,0.1-3.2,0.1-3.2-3.2v-17.1c0-0.4,0-0.8,0-1.3s0.2-0.8,0.7-0.8c1.3,0,2.6,0,4,0c0.8,0,1,0.8,1.3,1.3
			c2.2,3.6,4.4,7.3,6.5,10.9C378.1,230.8,378.4,231.3,378.9,231.6z"/>
		<path class="st1" d="M208.3,229.1c0-3.3,0-6.6,0-9.9c0-1.4,0-1.5,1.4-1.4c2.2,0.1,4.4-0.3,6.6-0.3c1.9,0,3.8,0.2,5.7,0.6
			c3.1,0.6,4.7,2.2,5.2,5.4c0.2,1.6,0.2,3.2,0,4.8c-0.5,3.7-2.8,5.6-6.8,5.8c-1.4,0.1-2.9,0-4.3,0c-2.6,0-2.3-0.1-2.3,2.4
			c0,1,0,1.9,0,2.9c0,0.8-0.3,1.1-1,1.1c-1.1-0.1-2.2-0.1-3.2,0c-1,0.1-1.3-0.4-1.2-1.3L208.3,229.1L208.3,229.1z M213.7,225.9
			L213.7,225.9v3.1c-0.1,0.4,0.2,0.8,0.7,0.8c0,0,0,0,0,0c1.7,0.3,3.4,0.3,5-0.1c1.3-0.3,2.2-1.4,2.2-2.7c0-0.8,0-1.6,0-2.3
			c0-1.2-0.8-2.2-2-2.5c-1.6-0.3-3.2-0.4-4.8-0.3c-0.6-0.1-1.1,0.4-1.2,1c0,0.1,0,0.2,0,0.3C213.7,224.1,213.7,225,213.7,225.9z"/>
		<path class="st1" d="M310.7,240.3c0-0.6,0.1-1.2,0.3-1.8c2.1-6.6,4.2-13.1,6.2-19.7c0.3-0.8,0.5-1,1.3-1c1.4,0.1,2.8,0.1,4.1,0
			c1.1-0.1,1.5,0.4,1.8,1.3c1.4,4.5,2.9,9,4.3,13.5c0.7,2.1,1.4,4.2,2,6.3c0.2,0.5,0.3,1,0.2,1.5c-1.6,0-3.2,0-4.8,0
			c-0.5,0-0.9-0.3-1-0.8c-0.2-0.8-0.5-1.6-0.7-2.4c-0.1-0.6-0.6-1.1-1.2-1c0,0,0,0,0,0c-1.6,0-3.2,0-4.9,0c-0.7-0.1-1.3,0.4-1.4,1
			c0,0,0,0.1,0,0.1c-0.2,0.8-0.4,1.5-0.6,2.3c-0.1,0.5-0.5,0.8-1,0.8c0,0,0,0,0,0C313.8,240.5,312.3,240.5,310.7,240.3z
			 M320.9,222.9c-1.1,2.9-1.9,5.9-2.5,8.9c1.3,0,2.5,0,3.6,0s1.2-0.1,0.9-1.1C322.2,228.1,321.5,225.5,320.9,222.9z"/>
		<path class="st1" d="M261.8,229.3c0-3.2,0-6.4,0-9.5c0-1.6,0-1.6,1.7-1.6c0.9,0,1.8,0,2.7,0s1.1,0.3,1.1,1.2c0,2.6,0,5.3,0,7.9
			c0,2.1,0,4.3,0,6.5c0,1.9,0,1.9,1.8,1.9c2.2,0,4.4,0,6.6,0c1.6,0,1.6,0,1.6,1.6c0,3.3,0,3.3-3.3,3.3h-10.3c-2.1,0-2.1,0.3-2.1-2.2
			V229.3z"/>
	</g>
</g>
</svg>
